<svg width="39" height="39" viewBox="0 0 39 39" fill="none" xmlns="http://www.w3.org/2000/svg">
<rect width="38.8" height="38.8" rx="1" fill="white"/>
<path d="M19.6245 14.6367C20.3652 14.6367 21.2936 14.136 21.8465 13.4683C22.3472 12.8633 22.7123 12.0183 22.7123 11.1734C22.7123 11.0586 22.7019 10.9439 22.681 10.85C21.8569 10.8813 20.8659 11.4029 20.2713 12.1018C19.8018 12.6338 19.3741 13.4683 19.3741 14.3237C19.3741 14.4489 19.395 14.5741 19.4054 14.6158C19.4576 14.6263 19.541 14.6367 19.6245 14.6367ZM17.0166 27.2591C18.0284 27.2591 18.477 26.581 19.7393 26.581C21.0224 26.581 21.304 27.2382 22.4306 27.2382C23.5364 27.2382 24.277 26.2159 24.976 25.2145C25.7584 24.067 26.0817 22.9403 26.1026 22.8882C26.0296 22.8673 23.9119 22.0015 23.9119 19.5709C23.9119 17.4637 25.581 16.5144 25.6749 16.4414C24.5691 14.8558 22.8896 14.814 22.4306 14.814C21.1893 14.814 20.1774 15.5651 19.541 15.5651C18.8526 15.5651 17.945 14.8558 16.8705 14.8558C14.8259 14.8558 12.75 16.5457 12.75 19.7378C12.75 21.7198 13.5219 23.8166 14.4712 25.1727C15.2849 26.3202 15.9943 27.2591 17.0166 27.2591Z" fill="black"/>
</svg>
