<svg width="254" height="16" viewBox="0 0 254 16" fill="none" xmlns="http://www.w3.org/2000/svg">
<path d="M119.533 9.38379V9.22656C119.533 8.69336 119.611 8.19889 119.766 7.74316C119.921 7.28288 120.144 6.88411 120.436 6.54688C120.732 6.20508 121.092 5.94076 121.516 5.75391C121.944 5.5625 122.427 5.4668 122.965 5.4668C123.507 5.4668 123.99 5.5625 124.414 5.75391C124.842 5.94076 125.205 6.20508 125.501 6.54688C125.797 6.88411 126.023 7.28288 126.178 7.74316C126.333 8.19889 126.41 8.69336 126.41 9.22656V9.38379C126.41 9.91699 126.333 10.4115 126.178 10.8672C126.023 11.3229 125.797 11.7217 125.501 12.0635C125.205 12.4007 124.845 12.665 124.421 12.8564C123.997 13.0433 123.516 13.1367 122.979 13.1367C122.436 13.1367 121.951 13.0433 121.522 12.8564C121.099 12.665 120.739 12.4007 120.442 12.0635C120.146 11.7217 119.921 11.3229 119.766 10.8672C119.611 10.4115 119.533 9.91699 119.533 9.38379ZM121.181 9.22656V9.38379C121.181 9.71647 121.215 10.0309 121.283 10.3271C121.352 10.6234 121.459 10.8831 121.604 11.1064C121.75 11.3298 121.937 11.5052 122.165 11.6328C122.393 11.7604 122.664 11.8242 122.979 11.8242C123.284 11.8242 123.548 11.7604 123.771 11.6328C123.999 11.5052 124.186 11.3298 124.332 11.1064C124.478 10.8831 124.585 10.6234 124.653 10.3271C124.726 10.0309 124.763 9.71647 124.763 9.38379V9.22656C124.763 8.89844 124.726 8.58854 124.653 8.29688C124.585 8.00065 124.476 7.73861 124.325 7.51074C124.179 7.28288 123.993 7.10514 123.765 6.97754C123.541 6.84538 123.275 6.7793 122.965 6.7793C122.655 6.7793 122.386 6.84538 122.158 6.97754C121.935 7.10514 121.75 7.28288 121.604 7.51074C121.459 7.73861 121.352 8.00065 121.283 8.29688C121.215 8.58854 121.181 8.89844 121.181 9.22656ZM129.445 7.01172V13H127.798V5.60352H129.37L129.445 7.01172ZM131.708 5.55566L131.694 7.08691C131.594 7.06868 131.485 7.05501 131.366 7.0459C131.252 7.03678 131.138 7.03223 131.024 7.03223C130.742 7.03223 130.493 7.07324 130.279 7.15527C130.065 7.23275 129.885 7.34668 129.739 7.49707C129.598 7.6429 129.489 7.82064 129.411 8.03027C129.334 8.23991 129.288 8.47461 129.274 8.73438L128.898 8.76172C128.898 8.29688 128.944 7.86621 129.035 7.46973C129.126 7.07324 129.263 6.72461 129.445 6.42383C129.632 6.12305 129.865 5.88835 130.143 5.71973C130.425 5.55111 130.751 5.4668 131.12 5.4668C131.22 5.4668 131.327 5.47591 131.441 5.49414C131.56 5.51237 131.649 5.53288 131.708 5.55566Z" fill="black"/>
<path d="M141 10H254" stroke="black"/>
<path d="M0 10L112 10" stroke="black"/>
</svg>
