<svg width="440" height="219" viewBox="0 0 440 219" fill="none" xmlns="http://www.w3.org/2000/svg">
<path d="M52.9048 63.5C68.1429 80.2692 71.9524 42.5385 79.5714 46.7308C87.1905 50.9231 91 63.5 91 73.9808C91 101.231 73.0952 118 51 118C28.9048 118 11 97.0385 11 67.6923C11 38.3462 37.6667 9 52.9048 9C52.9048 9 37.6667 46.7308 52.9048 63.5Z" fill="url(#paint0_linear_11_69)"/>
<path d="M7 67.6924C7 51.8774 14.1415 36.3627 23.082 24.8838C27.5734 19.1173 32.6229 14.2322 37.6543 10.7539C42.5965 7.33725 47.9265 5.00015 52.9043 5H58.834L56.6133 10.4951L56.6143 10.4961V10.4971C56.6134 10.4992 56.611 10.5041 56.6084 10.5107C56.6031 10.524 56.5941 10.5465 56.582 10.5771C56.5577 10.6388 56.5203 10.7353 56.4707 10.8643C56.3712 11.1229 56.2235 11.5131 56.0391 12.0205C55.6699 13.0361 55.1541 14.5183 54.5791 16.3535C53.4259 20.0338 52.05 25.0855 51.1367 30.6133C50.2198 36.1632 49.7948 42.0432 50.4473 47.4287C51.1003 52.8185 52.7958 57.4316 55.8652 60.8096C57.5282 62.6397 58.7418 63.3909 59.4961 63.6689C60.1186 63.8984 60.4927 63.8411 60.8633 63.6836C61.3657 63.47 62.0729 62.9555 62.96 61.8936C63.8315 60.8501 64.7043 59.4897 65.6045 57.8799C66.5042 56.2709 67.349 54.5661 68.2324 52.8145C69.0871 51.1199 69.9946 49.3458 70.9346 47.8311C71.8237 46.3984 73.013 44.7368 74.5859 43.6475C75.4296 43.0632 76.5138 42.5508 77.8125 42.4297C79.0659 42.3128 80.2482 42.5862 81.293 43.1172L81.5 43.2266L81.9629 43.4912C86.6989 46.2991 89.8804 51.345 91.8789 56.5684C93.9758 62.0488 95 68.3034 95 73.9805C95 88.5015 90.2139 100.536 82.1816 108.968C74.1515 117.398 63.0872 122 51 122C25.9595 122 7.00003 98.4314 7 67.6924ZM15 67.6924C15 95.6456 31.8501 114 51 114C61.008 114 69.9436 110.217 76.3896 103.45C82.8335 96.6853 87 86.7094 87 73.9805C87 69.177 86.1198 63.9028 84.4072 59.4268C82.8694 55.4076 80.8319 52.4606 78.5742 50.8271C78.3516 51.1096 78.0703 51.5054 77.7324 52.0498C77.0058 53.2207 76.2465 54.6891 75.375 56.417C74.5323 58.0879 73.5919 59.9869 72.5869 61.7842C71.5824 63.5805 70.4304 65.4294 69.0996 67.0225C67.7844 68.5969 66.1106 70.1459 63.9941 71.0459C61.7457 72.0019 59.2617 72.1091 56.7295 71.1758C54.3291 70.2911 52.0906 68.5523 49.9443 66.1904C45.3948 61.1838 43.2804 54.7916 42.5049 48.3906C41.7289 41.9854 42.2564 35.2883 43.2441 29.3096C44.1763 23.6674 45.5432 18.5313 46.7236 14.6807C45.3167 15.3501 43.8022 16.2285 42.2031 17.334C37.9488 20.2751 33.4736 24.5606 29.3936 29.7988C21.1914 40.3295 15 54.1614 15 67.6924Z" fill="black"/>
<rect x="42" y="110" width="19" height="81" fill="black"/>
<path d="M42.7812 100C42.7812 101.105 43.6767 102 44.7812 102H46.5938C47.6983 102 48.5938 101.105 48.5938 100V73H54.4062V100C54.4062 101.105 55.3017 102 56.4062 102H58.2188C59.3233 102 60.2188 101.105 60.2188 100V73H65C66.1046 73 67 73.8954 67 75V108C67 109.105 66.1046 110 65 110H38C36.8954 110 36 109.105 36 108V75C36 73.8954 36.8954 73 38 73H42.7812V100Z" fill="black"/>
<path d="M397.477 191V121.182H416.25V133.364H416.977C418.25 129.03 420.386 125.758 423.386 123.545C426.386 121.303 429.841 120.182 433.75 120.182C434.72 120.182 435.765 120.242 436.886 120.364C438.008 120.485 438.992 120.652 439.841 120.864V138.045C438.932 137.773 437.674 137.53 436.068 137.318C434.462 137.106 432.992 137 431.659 137C428.811 137 426.265 137.621 424.023 138.864C421.811 140.076 420.053 141.773 418.75 143.955C417.477 146.136 416.841 148.652 416.841 151.5V191H397.477Z" fill="black"/>
<path d="M391.264 121.182V135.727H349.218V121.182H391.264ZM358.764 104.455H378.127V169.545C378.127 171.333 378.4 172.727 378.945 173.727C379.491 174.697 380.248 175.379 381.218 175.773C382.218 176.167 383.37 176.364 384.673 176.364C385.582 176.364 386.491 176.288 387.4 176.136C388.309 175.955 389.006 175.818 389.491 175.727L392.536 190.136C391.567 190.439 390.203 190.788 388.445 191.182C386.688 191.606 384.551 191.864 382.036 191.955C377.37 192.136 373.279 191.515 369.764 190.091C366.279 188.667 363.567 186.455 361.627 183.455C359.688 180.455 358.733 176.667 358.764 172.091V104.455Z" fill="black"/>
<path d="M346.743 141.091L329.016 142.182C328.713 140.667 328.061 139.303 327.061 138.091C326.061 136.848 324.743 135.864 323.107 135.136C321.501 134.379 319.577 134 317.334 134C314.334 134 311.804 134.636 309.743 135.909C307.683 137.152 306.652 138.818 306.652 140.909C306.652 142.576 307.319 143.985 308.652 145.136C309.986 146.288 312.273 147.212 315.516 147.909L328.152 150.455C334.94 151.848 340.001 154.091 343.334 157.182C346.667 160.273 348.334 164.333 348.334 169.364C348.334 173.939 346.986 177.955 344.289 181.409C341.622 184.864 337.955 187.561 333.289 189.5C328.652 191.409 323.304 192.364 317.243 192.364C308.001 192.364 300.637 190.439 295.152 186.591C289.698 182.712 286.501 177.439 285.561 170.773L304.607 169.773C305.183 172.591 306.577 174.742 308.789 176.227C311.001 177.682 313.834 178.409 317.289 178.409C320.683 178.409 323.41 177.758 325.47 176.455C327.561 175.121 328.622 173.409 328.652 171.318C328.622 169.561 327.88 168.121 326.425 167C324.97 165.848 322.728 164.97 319.698 164.364L307.607 161.955C300.789 160.591 295.713 158.227 292.38 154.864C289.077 151.5 287.425 147.212 287.425 142C287.425 137.515 288.637 133.652 291.061 130.409C293.516 127.167 296.955 124.667 301.38 122.909C305.834 121.152 311.046 120.273 317.016 120.273C325.834 120.273 332.774 122.136 337.834 125.864C342.925 129.591 345.895 134.667 346.743 141.091Z" fill="black"/>
<path d="M250.37 192.364C243.189 192.364 237.007 190.909 231.825 188C226.673 185.061 222.704 180.909 219.916 175.545C217.128 170.152 215.734 163.773 215.734 156.409C215.734 149.227 217.128 142.924 219.916 137.5C222.704 132.076 226.628 127.848 231.689 124.818C236.78 121.788 242.749 120.273 249.598 120.273C254.204 120.273 258.492 121.015 262.461 122.5C266.461 123.955 269.946 126.152 272.916 129.091C275.916 132.03 278.249 135.727 279.916 140.182C281.583 144.606 282.416 149.788 282.416 155.727V161.045H223.461V149.045H264.189C264.189 146.258 263.583 143.788 262.37 141.636C261.158 139.485 259.477 137.803 257.325 136.591C255.204 135.348 252.734 134.727 249.916 134.727C246.977 134.727 244.37 135.409 242.098 136.773C239.855 138.106 238.098 139.909 236.825 142.182C235.552 144.424 234.901 146.924 234.87 149.682V161.091C234.87 164.545 235.507 167.53 236.78 170.045C238.083 172.561 239.916 174.5 242.28 175.864C244.643 177.227 247.446 177.909 250.689 177.909C252.84 177.909 254.81 177.606 256.598 177C258.386 176.394 259.916 175.485 261.189 174.273C262.461 173.061 263.431 171.576 264.098 169.818L282.007 171C281.098 175.303 279.234 179.061 276.416 182.273C273.628 185.455 270.022 187.939 265.598 189.727C261.204 191.485 256.128 192.364 250.37 192.364Z" fill="black"/>
<path d="M175.407 218.636C169.134 218.636 163.755 217.773 159.27 216.045C154.816 214.348 151.27 212.03 148.634 209.091C145.998 206.152 144.286 202.848 143.498 199.182L161.407 196.773C161.952 198.167 162.816 199.47 163.998 200.682C165.18 201.894 166.74 202.864 168.68 203.591C170.649 204.348 173.043 204.727 175.861 204.727C180.073 204.727 183.543 203.697 186.27 201.636C189.028 199.606 190.407 196.197 190.407 191.409V178.636H189.589C188.74 180.576 187.467 182.409 185.77 184.136C184.073 185.864 181.892 187.273 179.225 188.364C176.558 189.455 173.377 190 169.68 190C164.437 190 159.664 188.788 155.361 186.364C151.089 183.909 147.68 180.167 145.134 175.136C142.619 170.076 141.361 163.682 141.361 155.955C141.361 148.045 142.649 141.439 145.225 136.136C147.801 130.833 151.225 126.864 155.498 124.227C159.801 121.591 164.513 120.273 169.634 120.273C173.543 120.273 176.816 120.939 179.452 122.273C182.089 123.576 184.21 125.212 185.816 127.182C187.452 129.121 188.71 131.03 189.589 132.909H190.316V121.182H209.543V191.682C209.543 197.621 208.089 202.591 205.18 206.591C202.27 210.591 198.24 213.591 193.089 215.591C187.967 217.621 182.073 218.636 175.407 218.636ZM175.816 175.455C178.937 175.455 181.573 174.682 183.725 173.136C185.907 171.561 187.573 169.318 188.725 166.409C189.907 163.47 190.498 159.955 190.498 155.864C190.498 151.773 189.922 148.227 188.77 145.227C187.619 142.197 185.952 139.848 183.77 138.182C181.589 136.515 178.937 135.682 175.816 135.682C172.634 135.682 169.952 136.545 167.77 138.273C165.589 139.97 163.937 142.333 162.816 145.364C161.695 148.394 161.134 151.894 161.134 155.864C161.134 159.894 161.695 163.379 162.816 166.318C163.967 169.227 165.619 171.485 167.77 173.091C169.952 174.667 172.634 175.455 175.816 175.455Z" fill="black"/>
<path d="M90.0909 150.636V191H70.7273V121.182H89.1818V133.5H90C91.5455 129.439 94.1364 126.227 97.7727 123.864C101.409 121.47 105.818 120.273 111 120.273C115.848 120.273 120.076 121.333 123.682 123.455C127.288 125.576 130.091 128.606 132.091 132.545C134.091 136.455 135.091 141.121 135.091 146.545V191H115.727V150C115.758 145.727 114.667 142.394 112.455 140C110.242 137.576 107.197 136.364 103.318 136.364C100.712 136.364 98.4091 136.924 96.4091 138.045C94.4394 139.167 92.8939 140.803 91.7727 142.955C90.6818 145.076 90.1212 147.636 90.0909 150.636Z" fill="black"/>
<defs>
<linearGradient id="paint0_linear_11_69" x1="51" y1="9" x2="51" y2="118" gradientUnits="userSpaceOnUse">
<stop stop-color="#FF6A00"/>
<stop offset="1" stop-color="#CF352E"/>
</linearGradient>
</defs>
</svg>
